{
.appVersion = "3108";
.formatVersion = 3;
DisplayStrings = (
"101 hello There 100

the quick brown fox jumps over the lazy doggy
aggregated
omnipotent?!*,.

THE QUICK BROWN FOX JUMPS OVER THE LAZY? DOGGY

The Quick Brown Fox Jumps Over The Lazy Doggy

noonono",
"/g_g",
"/g_g_y",
"231",
"2",
"1",
C,
"4",
"in 1255
so the 50S",
"3",
"5",
"Z***",
p,
"*",
","
);
date = "2022-01-05 06:48:12 +0000";
familyName = Submarine;
featurePrefixes = (
{
automatic = 1;
code = "languagesystem DFLT dflt;
";
name = Languagesystems;
}
);
features = (
{
automatic = 1;
code = "lookupflag IgnoreMarks;
sub g g y by g_g_y;
sub g g by g_g;
";
tag = dlig;
}
);
fontMaster = (
{
id = m01;
metricValues = (
{
over = 16;
pos = 500;
},
{
over = 16;
pos = 700;
},
{
over = 16;
pos = 250;
},
{
over = -16;
},
{
over = -16;
pos = -250;
},
{
over = -16;
}
);
name = Regular;
userData = {
GSCornerRadius = 50;
};
}
);
glyphs = (
{
glyphname = A;
lastChange = "2022-05-09 19:50:13 +0000";
layers = (
{
layerId = m01;
shapes = (
{
closed = 1;
nodes = (
(100,0,l),
(100,200,l),
(400,200,l),
(400,0,l),
(450,0,l),
(450,200,l),
(500,200,l),
(500,250,l),
(450,250,l),
(450,450,ls),
(450,488,o),
(438,500,o),
(400,500,cs),
(100,500,ls),
(63,500,o),
(50,488,o),
(50,450,cs),
(50,250,l),
(0,250,l),
(0,200,l),
(50,200,l),
(50,0,l)
);
},
{
closed = 1;
nodes = (
(100,438,ls),
(100,450,o),
(100,450,o),
(113,450,cs),
(388,450,ls),
(400,450,o),
(400,450,o),
(400,438,cs),
(400,263,ls),
(400,250,o),
(400,250,o),
(388,250,cs),
(113,250,ls),
(100,250,o),
(100,250,o),
(100,263,cs)
);
}
);
width = 500;
}
);
unicode = 65;
},
{
glyphname = B;
lastChange = "2022-05-09 19:47:42 +0000";
layers = (
{
layerId = m01;
shapes = (
{
closed = 1;
nodes = (
(550,0,ls),
(588,0,o),
(600,13,o),
(600,50,cs),
(600,200,ls),
(600,238,o),
(588,250,o),
(550,250,cs),
(100,250,l),
(100,300,l),
(350,300,ls),
(388,300,o),
(400,313,o),
(400,350,cs),
(400,450,ls),
(400,488,o),
(388,500,o),
(350,500,cs),
(100,500,ls),
(63,500,o),
(50,488,o),
(50,450,cs),
(50,350,l),
(0,350,l),
(0,300,l),
(50,300,l),
(50,250,l),
(0,250,l),
(0,200,l),
(50,200,l),
(50,50,ls),
(50,13,o),
(63,0,o),
(100,0,cs)
);
},
{
closed = 1;
nodes = (
(100,188,ls),
(100,200,o),
(100,200,o),
(113,200,cs),
(538,200,ls),
(550,200,o),
(550,200,o),
(550,188,cs),
(550,63,ls),
(550,50,o),
(550,50,o),
(538,50,cs),
(113,50,ls),
(100,50,o),
(100,50,o),
(100,63,cs)
);
},
{
closed = 1;
nodes = (
(100,438,ls),
(100,450,o),
(100,450,o),
(113,450,cs),
(338,450,ls),
(350,450,o),
(350,450,o),
(350,438,cs),
(350,363,ls),
(350,350,o),
(350,350,o),
(338,350,cs),
(113,350,ls),
(100,350,o),
(100,350,o),
(100,363,cs)
);
}
);
width = 650;
}
);
unicode = 66;
},
{
glyphname = C;
lastChange = "2022-05-09 19:47:32 +0000";
layers = (
{
layerId = m01;
shapes = (
{
closed = 1;
nodes = (
(0,50,ls),
(0,13,o),
(13,0,o),
(50,0,cs),
(450,0,ls),
(488,0,o),
(500,13,o),
(500,50,cs),
(500,150,l),
(450,150,l),
(450,63,ls),
(450,50,o),
(450,50,o),
(438,50,cs),
(63,50,ls),
(50,50,o),
(50,50,o),
(50,63,cs),
(50,438,ls),
(50,450,o),
(50,450,o),
(63,450,cs),
(438,450,ls),
(450,450,o),
(450,450,o),
(450,438,cs),
(450,350,l),
(500,350,l),
(500,450,ls),
(500,488,o),
(488,500,o),
(450,500,cs),
(50,500,ls),
(13,500,o),
(0,488,o),
(0,450,cs)
);
}
);
width = 550;
}
);
unicode = 67;
},
{
glyphname = D;
lastChange = "2022-03-16 12:02:42 +0000";
layers = (
{
layerId = m01;
shapes = (
{
closed = 1;
nodes = (
(500,0,ls),
(538,0,o),
(550,13,o),
(550,50,cs),
(550,450,ls),
(550,488,o),
(538,500,o),
(500,500,cs),
(0,500,l),
(0,450,l),
(50,450,l),
(50,50,l),
(0,50,l),
(0,0,l)
);
},
{
closed = 1;
nodes = (
(100,438,ls),
(100,450,o),
(100,450,o),
(113,450,cs),
(488,450,ls),
(500,450,o),
(500,450,o),
(500,438,cs),
(500,63,ls),
(500,50,o),
(500,50,o),
(488,50,cs),
(113,50,ls),
(100,50,o),
(100,50,o),
(100,63,cs)
);
}
);
width = 600;
}
);
unicode = 68;
},
{
glyphname = E;
lastChange = "2022-05-09 19:46:17 +0000";
layers = (
{
layerId = m01;
shapes = (
{
closed = 1;
nodes = (
(50,200,l),
(0,200,l),
(0,250,l),
(50,250,l),
(50,450,ls),
(50,488,o),
(63,500,o),
(100,500,cs),
(400,500,l),
(400,450,l),
(113,450,ls),
(100,450,o),
(100,450,o),
(100,438,cs),
(100,263,ls),
(100,250,o),
(100,250,o),
(113,250,cs),
(300,250,l),
(300,200,l),
(113,200,ls),
(100,200,o),
(100,200,o),
(100,188,cs),
(100,63,ls),
(100,50,o),
(100,50,o),
(113,50,cs),
(450,50,l),
(450,0,l),
(100,0,ls),
(63,0,o),
(50,13,o),
(50,50,cs)
);
}
);
width = 500;
}
);
unicode = 69;
},
{
glyphname = F;
lastChange = "2022-05-09 19:48:11 +0000";
layers = (
{
layerId = m01;
shapes = (
{
closed = 1;
nodes = (
(50,250,l),
(0,250,l),
(0,200,l),
(50,200,l),
(50,0,l),
(100,0,l),
(100,188,ls),
(100,200,o),
(100,200,o),
(113,200,cs),
(350,200,l),
(350,250,l),
(113,250,ls),
(100,250,o),
(100,250,o),
(100,263,cs),
(100,438,ls),
(100,450,o),
(100,450,o),
(113,450,cs),
(400,450,l),
(400,500,l),
(100,500,ls),
(63,500,o),
(50,488,o),
(50,450,cs)
);
}
);
width = 450;
}
);
unicode = 70;
},
{
glyphname = G;
lastChange = "2022-05-09 19:46:27 +0000";
layers = (
{
layerId = m01;
shapes = (
{
closed = 1;
nodes = (
(500,50,ls),
(500,13,o),
(488,0,o),
(450,0,cs),
(50,0,ls),
(13,0,o),
(0,13,o),
(0,50,cs),
(0,450,ls),
(0,488,o),
(13,500,o),
(50,500,cs),
(450,500,ls),
(488,500,o),
(500,488,o),
(500,450,cs),
(500,350,l),
(450,350,l),
(450,438,ls),
(450,450,o),
(450,450,o),
(438,450,cs),
(63,450,ls),
(50,450,o),
(50,450,o),
(50,438,cs),
(50,63,ls),
(50,50,o),
(50,50,o),
(63,50,cs),
(438,50,ls),
(450,50,o),
(450,50,o),
(450,63,cs),
(450,188,ls),
(450,200,o),
(450,200,o),
(438,200,cs),
(300,200,l),
(300,250,l),
(450,250,ls),
(488,250,o),
(500,238,o),
(500,200,cs)
);
}
);
width = 550;
}
);
unicode = 71;
},
{
glyphname = H;
lastChange = "2022-03-17 12:34:19 +0000";
layers = (
{
layerId = m01;
shapes = (
{
closed = 1;
nodes = (
(50,250,l),
(0,250,l),
(0,200,l),
(50,200,l),
(50,0,l),
(100,0,l),
(100,200,l),
(450,200,l),
(450,0,l),
(500,0,l),
(500,200,l),
(550,200,l),
(550,250,l),
(500,250,l),
(500,500,l),
(450,500,l),
(450,250,l),
(100,250,l),
(100,500,l),
(50,500,l)
);
}
);
width = 600;
}
);
unicode = 72;
},
{
glyphname = I;
lastChange = "2022-05-09 19:45:53 +0000";
layers = (
{
layerId = m01;
shapes = (
{
closed = 1;
nodes = (
(0,450,l),
(50,450,l),
(50,50,l),
(0,50,l),
(0,0,l),
(150,0,l),
(150,50,l),
(100,50,l),
(100,450,l),
(150,450,l),
(150,500,l),
(0,500,l)
);
}
);
width = 200;
}
);
unicode = 73;
},
{
glyphname = J;
lastChange = "2022-05-09 19:46:45 +0000";
layers = (
{
layerId = m01;
shapes = (
{
closed = 1;
nodes = (
(0,50,ls),
(0,13,o),
(13,0,o),
(50,0,cs),
(300,0,ls),
(338,0,o),
(350,13,o),
(350,50,cs),
(350,450,ls),
(350,488,o),
(338,500,o),
(300,500,cs),
(250,500,l),
(250,450,l),
(300,450,l),
(300,63,ls),
(300,50,o),
(300,50,o),
(288,50,cs),
(63,50,ls),
(50,50,o),
(50,50,o),
(50,63,cs),
(50,150,l),
(0,150,l)
);
}
);
width = 400;
}
);
unicode = 74;
},
{
glyphname = K;
lastChange = "2022-03-17 18:39:06 +0000";
layers = (
{
layerId = m01;
shapes = (
{
closed = 1;
nodes = (
(50,250,l),
(0,250,l),
(0,200,l),
(50,200,l),
(50,0,l),
(100,0,l),
(100,200,l),
(388,200,ls),
(400,200,o),
(400,200,o),
(400,188,cs),
(400,0,l),
(450,0,l),
(450,200,ls),
(450,238,o),
(438,250,o),
(400,250,cs),
(375,250,l),
(375,438,ls),
(375,450,o),
(375,450,o),
(388,450,cs),
(425,450,l),
(425,500,l),
(375,500,ls),
(338,500,o),
(325,488,o),
(325,450,cs),
(325,250,l),
(100,250,l),
(100,500,l),
(50,500,l)
);
}
);
width = 600;
}
);
unicode = 75;
},
{
glyphname = L;
lastChange = "2022-05-09 19:46:42 +0000";
layers = (
{
layerId = m01;
shapes = (
{
closed = 1;
nodes = (
(0,50,ls),
(0,13,o),
(13,0,o),
(50,0,cs),
(350,0,l),
(350,50,l),
(63,50,ls),
(50,50,o),
(50,50,o),
(50,63,cs),
(50,500,l),
(0,500,l)
);
}
);
width = 400;
}
);
unicode = 76;
},
{
glyphname = M;
lastChange = "2022-05-09 19:46:56 +0000";
layers = (
{
layerId = m01;
shapes = (
{
closed = 1;
nodes = (
(450,500,ls),
(488,500,o),
(500,488,o),
(500,450,cs),
(500,0,l),
(450,0,l),
(450,438,ls),
(450,450,o),
(450,450,o),
(438,450,cs),
(313,450,ls),
(300,450,o),
(300,450,o),
(300,438,cs),
(300,0,l),
(250,0,l),
(250,438,ls),
(250,450,o),
(250,450,o),
(238,450,cs),
(113,450,ls),
(100,450,o),
(100,450,o),
(100,438,cs),
(100,0,l),
(50,0,l),
(50,450,l),
(0,450,l),
(0,500,l)
);
}
);
width = 550;
}
);
unicode = 77;
},
{
glyphname = N;
lastChange = "2022-05-09 19:48:05 +0000";
layers = (
{
layerId = m01;
shapes = (
{
closed = 1;
nodes = (
(0,450,l),
(50,450,l),
(50,0,l),
(100,0,l),
(100,438,ls),
(100,450,o),
(100,450,o),
(113,450,cs),
(388,450,ls),
(400,450,o),
(400,450,o),
(400,438,cs),
(400,0,l),
(450,0,l),
(450,450,ls),
(450,488,o),
(438,500,o),
(400,500,cs),
(0,500,l)
);
}
);
width = 500;
}
);
unicode = 78;
},
{
glyphname = O;
lastChange = "2022-05-09 19:45:06 +0000";
layers = (
{
layerId = m01;
shapes = (
{
closed = 1;
nodes = (
(450,0,ls),
(488,0,o),
(500,13,o),
(500,50,cs),
(500,450,ls),
(500,488,o),
(488,500,o),
(450,500,cs),
(50,500,ls),
(13,500,o),
(0,488,o),
(0,450,cs),
(0,50,ls),
(0,13,o),
(13,0,o),
(50,0,cs)
);
},
{
closed = 1;
nodes = (
(50,438,ls),
(50,450,o),
(50,450,o),
(63,450,cs),
(438,450,ls),
(450,450,o),
(450,450,o),
(450,438,cs),
(450,63,ls),
(450,50,o),
(450,50,o),
(438,50,cs),
(63,50,ls),
(50,50,o),
(50,50,o),
(50,63,cs)
);
}
);
width = 550;
}
);
unicode = 79;
},
{
glyphname = P;
lastChange = "2022-05-09 19:47:04 +0000";
layers = (
{
layerId = m01;
shapes = (
{
closed = 1;
nodes = (
(100,0,l),
(100,200,l),
(450,200,ls),
(488,200,o),
(500,213,o),
(500,250,cs),
(500,450,ls),
(500,488,o),
(488,500,o),
(450,500,cs),
(100,500,ls),
(63,500,o),
(50,488,o),
(50,450,cs),
(50,250,l),
(0,250,l),
(0,200,l),
(50,200,l),
(50,0,l)
);
},
{
closed = 1;
nodes = (
(100,438,ls),
(100,450,o),
(100,450,o),
(113,450,cs),
(438,450,ls),
(450,450,o),
(450,450,o),
(450,438,cs),
(450,263,ls),
(450,250,o),
(450,250,o),
(438,250,cs),
(113,250,ls),
(100,250,o),
(100,250,o),
(100,263,cs)
);
}
);
width = 550;
}
);
unicode = 80;
},
{
glyphname = Q;
lastChange = "2022-05-09 19:47:25 +0000";
layers = (
{
layerId = m01;
shapes = (
{
closed = 1;
nodes = (
(425,-100,l),
(425,-50,l),
(363,-50,ls),
(350,-50,o),
(350,-50,o),
(350,-38,cs),
(350,-13,ls),
(350,0,o),
(350,0,o),
(363,0,cs),
(450,0,ls),
(488,0,o),
(500,13,o),
(500,50,cs),
(500,450,ls),
(500,488,o),
(488,500,o),
(450,500,cs),
(50,500,ls),
(13,500,o),
(0,488,o),
(0,450,cs),
(0,50,ls),
(0,13,o),
(13,0,o),
(50,0,cs),
(288,0,ls),
(300,0,o),
(300,0,o),
(300,-13,cs),
(300,-50,ls),
(300,-88,o),
(313,-100,o),
(350,-100,cs)
);
},
{
closed = 1;
nodes = (
(50,438,ls),
(50,450,o),
(50,450,o),
(63,450,cs),
(438,450,ls),
(450,450,o),
(450,450,o),
(450,438,cs),
(450,63,ls),
(450,50,o),
(450,50,o),
(438,50,cs),
(363,50,ls),
(350,50,o),
(350,50,o),
(350,63,cs),
(350,100,l),
(300,100,l),
(300,63,ls),
(300,50,o),
(300,50,o),
(288,50,cs),
(63,50,ls),
(50,50,o),
(50,50,o),
(50,63,cs)
);
}
);
width = 550;
}
);
unicode = 81;
},
{
glyphname = R;
lastChange = "2022-03-16 12:09:39 +0000";
layers = (
{
layerId = m01;
shapes = (
{
closed = 1;
nodes = (
(100,0,l),
(100,188,ls),
(100,200,o),
(100,200,o),
(113,200,cs),
(488,200,ls),
(500,200,o),
(500,200,o),
(500,188,cs),
(500,0,l),
(550,0,l),
(550,200,ls),
(550,238,o),
(538,250,o),
(500,250,cs),
(100,250,l),
(100,300,l),
(350,300,ls),
(388,300,o),
(400,313,o),
(400,350,cs),
(400,450,ls),
(400,488,o),
(388,500,o),
(350,500,cs),
(100,500,ls),
(63,500,o),
(50,488,o),
(50,450,cs),
(50,350,l),
(0,350,l),
(0,300,l),
(50,300,l),
(50,250,l),
(0,250,l),
(0,200,l),
(50,200,l),
(50,0,l)
);
},
{
closed = 1;
nodes = (
(100,438,ls),
(100,450,o),
(100,450,o),
(113,450,cs),
(338,450,ls),
(350,450,o),
(350,450,o),
(350,438,cs),
(350,363,ls),
(350,350,o),
(350,350,o),
(338,350,cs),
(113,350,ls),
(100,350,o),
(100,350,o),
(100,363,cs)
);
}
);
width = 600;
}
);
unicode = 82;
},
{
glyphname = S;
lastChange = "2022-03-17 15:30:08 +0000";
layers = (
{
layerId = m01;
shapes = (
{
closed = 1;
nodes = (
(0,0,l),
(450,0,ls),
(488,0,o),
(500,13,o),
(500,50,cs),
(500,250,ls),
(500,288,o),
(488,300,o),
(450,300,cs),
(63,300,ls),
(50,300,o),
(50,300,o),
(50,313,cs),
(50,438,ls),
(50,450,o),
(50,450,o),
(63,450,cs),
(350,450,l),
(350,500,l),
(50,500,ls),
(13,500,o),
(0,488,o),
(0,450,cs),
(0,300,ls),
(0,263,o),
(13,250,o),
(50,250,cs),
(438,250,ls),
(450,250,o),
(450,250,o),
(450,238,cs),
(450,63,ls),
(450,50,o),
(450,50,o),
(438,50,cs),
(0,50,l)
);
}
);
width = 600;
}
);
unicode = 83;
},
{
glyphname = T;
lastChange = "2022-05-09 19:45:15 +0000";
layers = (
{
layerId = m01;
shapes = (
{
closed = 1;
nodes = (
(0,450,l),
(200,450,l),
(200,0,l),
(250,0,l),
(250,450,l),
(450,450,l),
(450,500,l),
(0,500,l)
);
}
);
width = 500;
}
);
unicode = 84;
},
{
glyphname = U;
lastChange = "2022-05-09 19:46:49 +0000";
layers = (
{
layerId = m01;
shapes = (
{
closed = 1;
nodes = (
(0,50,ls),
(0,13,o),
(13,0,o),
(50,0,cs),
(400,0,ls),
(438,0,o),
(450,13,o),
(450,50,cs),
(450,500,l),
(400,500,l),
(400,63,ls),
(400,50,o),
(400,50,o),
(388,50,cs),
(63,50,ls),
(50,50,o),
(50,50,o),
(50,63,cs),
(50,500,l),
(0,500,l)
);
}
);
width = 500;
}
);
unicode = 85;
},
{
glyphname = V;
lastChange = "2022-05-09 19:47:10 +0000";
layers = (
{
layerId = m01;
shapes = (
{
closed = 1;
nodes = (
(0,0,l),
(300,0,ls),
(338,0,o),
(350,13,o),
(350,50,cs),
(350,288,ls),
(350,300,o),
(350,300,o),
(363,300,c),
(400,300,l),
(400,350,l),
(350,350,l),
(318,350,o),
(300,332,o),
(300,300,cs),
(300,63,ls),
(300,50,o),
(300,50,o),
(288,50,cs),
(50,50,l),
(50,500,l),
(0,500,l)
);
}
);
width = 450;
}
);
unicode = 86;
},
{
glyphname = W;
lastChange = "2022-05-09 19:47:50 +0000";
layers = (
{
layerId = m01;
shapes = (
{
closed = 1;
nodes = (
(0,0,l),
(600,0,ls),
(638,0,o),
(650,14,o),
(650,50,cs),
(650,438,ls),
(650,451,o),
(650,450,o),
(663,450,cs),
(700,450,l),
(700,500,l),
(650,500,ls),
(613,500,o),
(600,489,o),
(600,450,cs),
(600,63,ls),
(600,51,o),
(600,50,o),
(588,50,cs),
(350,50,l),
(350,450,l),
(300,450,l),
(300,50,l),
(50,50,l),
(50,500,l),
(0,500,l)
);
}
);
width = 750;
}
);
unicode = 87;
},
{
glyphname = X;
lastChange = "2022-05-09 19:46:22 +0000";
layers = (
{
layerId = m01;
shapes = (
{
closed = 1;
nodes = (
(0,500,l),
(0,450,l),
(38,450,ls),
(50,450,o),
(50,450,o),
(50,438,cs),
(50,300,ls),
(50,250,o),
(75,225,o),
(125,225,c),
(75,225,o),
(50,200,o),
(50,150,cs),
(50,0,l),
(100,0,l),
(100,138,ls),
(100,175,o),
(125,200,o),
(163,200,cs),
(388,200,ls),
(425,200,o),
(450,175,o),
(450,138,cs),
(450,50,ls),
(450,13,o),
(463,0,o),
(500,0,cs),
(550,0,l),
(550,50,l),
(513,50,ls),
(500,50,o),
(500,50,o),
(500,63,cs),
(500,150,ls),
(500,200,o),
(475,225,o),
(425,225,c),
(475,225,o),
(500,250,o),
(500,300,cs),
(500,500,l),
(450,500,l),
(450,313,ls),
(450,275,o),
(425,250,o),
(388,250,cs),
(163,250,ls),
(125,250,o),
(100,275,o),
(100,313,cs),
(100,450,ls),
(100,488,o),
(88,500,o),
(50,500,cs)
);
}
);
width = 600;
}
);
unicode = 88;
},
{
glyphname = Y;
lastChange = "2022-05-09 19:48:44 +0000";
layers = (
{
layerId = m01;
shapes = (
{
closed = 1;
nodes = (
(0,250,ls),
(0,213,o),
(13,200,o),
(50,200,cs),
(388,200,ls),
(400,200,o),
(400,200,o),
(400,188,cs),
(400,63,ls),
(400,50,o),
(400,50,o),
(388,50,cs),
(50,50,l),
(50,0,l),
(400,0,ls),
(438,0,o),
(450,13,o),
(450,50,cs),
(450,200,l),
(500,200,l),
(500,250,l),
(450,250,l),
(450,500,l),
(400,500,l),
(400,263,ls),
(400,250,o),
(400,250,o),
(388,250,cs),
(63,250,ls),
(50,250,o),
(50,250,o),
(50,263,cs),
(50,500,l),
(0,500,l)
);
}
);
width = 550;
}
);
unicode = 89;
},
{
glyphname = Z;
lastChange = "2022-05-10 09:46:04 +0000";
layers = (
{
layerId = m01;
shapes = (
{
closed = 1;
nodes = (
(50,450,l),
(363,450,ls),
(375,450,o),
(375,450,o),
(375,438,cs),
(375,300,l),
(0,300,l),
(0,250,l),
(50,250,l),
(50,50,ls),
(50,13,o),
(63,0,o),
(100,0,cs),
(525,0,l),
(525,50,l),
(113,50,ls),
(100,50,o),
(100,50,o),
(100,63,cs),
(100,250,l),
(475,250,l),
(475,300,l),
(425,300,l),
(425,450,ls),
(425,488,o),
(413,500,o),
(375,500,cs),
(50,500,l)
);
}
);
width = 575;
}
);
unicode = 90;
},
{
glyphname = a;
lastChange = "2022-05-10 09:38:19 +0000";
layers = (
{
layerId = m01;
shapes = (
{
closed = 1;
nodes = (
(400,0,l),
(400,50,l),
(363,50,ls),
(350,50,o),
(350,50,o),
(350,63,cs),
(350,100,ls),
(350,125,o),
(325,150,o),
(300,150,cs),
(263,150,ls),
(250,150,o),
(250,150,o),
(250,163,cs),
(250,200,ls),
(250,225,o),
(225,250,o),
(200,250,cs),
(0,250,l),
(0,200,l),
(188,200,ls),
(200,200,o),
(200,200,o),
(200,188,cs),
(200,163,ls),
(200,150,o),
(200,150,o),
(188,150,cs),
(50,150,ls),
(25,150,o),
(0,125,o),
(0,100,cs),
(0,50,ls),
(0,25,o),
(25,0,o),
(50,0,cs)
);
},
{
closed = 1;
nodes = (
(50,50,o),
(50,50,o),
(50,63,cs),
(50,88,ls),
(50,100,o),
(50,100,o),
(63,100,cs),
(288,100,ls),
(300,100,o),
(300,100,o),
(300,88,cs),
(300,63,ls),
(300,50,o),
(300,50,o),
(288,50,cs),
(63,50,ls)
);
}
);
width = 438;
}
);
unicode = 97;
},
{
glyphname = b;
lastChange = "2022-05-10 09:36:55 +0000";
layers = (
{
layerId = m01;
shapes = (
{
closed = 1;
nodes = (
(400,0,ls),
(438,0,o),
(450,13,o),
(450,50,cs),
(450,200,ls),
(450,238,o),
(438,250,o),
(400,250,cs),
(213,250,ls),
(200,250,o),
(200,250,o),
(200,263,cs),
(200,450,ls),
(200,488,o),
(188,500,o),
(150,500,cs),
(100,500,l),
(100,450,l),
(138,450,ls),
(150,450,o),
(150,450,o),
(150,438,cs),
(150,263,ls),
(150,250,o),
(150,250,o),
(138,250,cs),
(100,250,ls),
(63,250,o),
(50,238,o),
(50,200,cs),
(50,63,ls),
(50,50,o),
(50,50,o),
(38,50,cs),
(0,50,l),
(0,0,l)
);
},
{
closed = 1;
nodes = (
(100,50,o),
(100,50,o),
(100,63,cs),
(100,188,ls),
(100,200,o),
(100,200,o),
(113,200,cs),
(388,200,ls),
(400,200,o),
(400,200,o),
(400,188,cs),
(400,63,ls),
(400,50,o),
(400,50,o),
(388,50,cs),
(113,50,ls)
);
}
);
width = 488;
}
);
unicode = 98;
},
{
glyphname = c;
lastChange = "2022-05-10 09:36:48 +0000";
layers = (
{
layerId = m01;
shapes = (
{
closed = 1;
nodes = (
(350,63,ls),
(350,50,o),
(350,50,o),
(338,50,cs),
(63,50,ls),
(50,50,o),
(50,50,o),
(50,63,cs),
(50,188,ls),
(50,200,o),
(50,200,o),
(63,200,cs),
(338,200,ls),
(350,200,o),
(350,200,o),
(350,188,cs),
(350,150,l),
(400,150,l),
(400,200,ls),
(400,238,o),
(388,250,o),
(350,250,cs),
(50,250,ls),
(13,250,o),
(0,238,o),
(0,200,cs),
(0,50,ls),
(0,13,o),
(13,0,o),
(50,0,cs),
(350,0,ls),
(388,0,o),
(400,13,o),
(400,50,cs),
(400,100,l),
(350,100,l)
);
}
);
width = 438;
}
);
unicode = 99;
},
{
glyphname = d;
lastChange = "2022-05-10 09:38:27 +0000";
layers = (
{
layerId = m01;
shapes = (
{
closed = 1;
nodes = (
(450,50,l),
(413,50,ls),
(400,50,o),
(400,50,o),
(400,63,cs),
(400,200,ls),
(400,238,o),
(387,250,o),
(350,250,cs),
(313,250,ls),
(300,250,o),
(300,250,o),
(300,263,cs),
(300,438,ls),
(300,450,o),
(300,450,o),
(313,450,cs),
(350,450,l),
(350,500,l),
(300,500,ls),
(262,500,o),
(250,488,o),
(250,450,cs),
(250,263,ls),
(250,250,o),
(250,250,o),
(238,250,cs),
(50,250,ls),
(12,250,o),
(0,238,o),
(0,200,cs),
(0,50,ls),
(0,13,o),
(12,0,o),
(50,0,cs),
(450,0,l)
);
},
{
closed = 1;
nodes = (
(63,50,ls),
(50,50,o),
(50,50,o),
(50,63,cs),
(50,188,ls),
(50,200,o),
(50,200,o),
(63,200,cs),
(338,200,ls),
(350,200,o),
(350,200,o),
(350,188,cs),
(350,63,ls),
(350,50,o),
(350,50,o),
(338,50,cs)
);
}
);
width = 488;
}
);
unicode = 100;
},
{
glyphname = e;
lastChange = "2022-05-10 09:36:24 +0000";
layers = (
{
layerId = m01;
shapes = (
{
closed = 1;
nodes = (
(450,0,l),
(450,50,l),
(113,50,ls),
(100,50,o),
(100,50,o),
(100,63,cs),
(100,88,ls),
(100,100,o),
(100,100,o),
(113,100,cs),
(300,100,ls),
(338,100,o),
(350,113,o),
(350,150,cs),
(350,200,ls),
(350,238,o),
(338,250,o),
(300,250,cs),
(100,250,ls),
(63,250,o),
(50,238,o),
(50,200,cs),
(50,163,ls),
(50,150,o),
(50,150,o),
(38,150,cs),
(0,150,l),
(0,100,l),
(38,100,ls),
(50,100,o),
(50,100,o),
(50,88,cs),
(50,50,ls),
(50,13,o),
(63,0,o),
(100,0,cs)
);
},
{
closed = 1;
nodes = (
(100,150,o),
(100,150,o),
(100,163,cs),
(100,188,ls),
(100,200,o),
(100,200,o),
(113,200,cs),
(288,200,ls),
(300,200,o),
(300,200,o),
(300,188,cs),
(300,163,ls),
(300,150,o),
(300,150,o),
(288,150,cs),
(113,150,ls)
);
}
);
width = 488;
}
);
unicode = 101;
},
{
glyphname = f;
lastChange = "2022-05-10 09:37:08 +0000";
layers = (
{
layerId = m01;
shapes = (
{
closed = 1;
nodes = (
(0,200,l),
(38,200,ls),
(50,200,o),
(50,200,o),
(50,188,cs),
(50,50,ls),
(50,13,o),
(63,0,o),
(100,0,cs),
(150,0,l),
(150,50,l),
(113,50,ls),
(100,50,o),
(100,50,o),
(100,63,cs),
(100,188,ls),
(100,200,o),
(100,200,o),
(113,200,cs),
(225,200,l),
(225,250,l),
(113,250,ls),
(100,250,o),
(100,250,o),
(100,263,cs),
(100,438,ls),
(100,450,o),
(100,450,o),
(113,450,cs),
(200,450,l),
(200,500,l),
(100,500,ls),
(63,500,o),
(50,488,o),
(50,450,cs),
(50,263,ls),
(50,250,o),
(50,250,o),
(38,250,cs),
(0,250,l)
);
}
);
width = 263;
}
);
unicode = 102;
},
{
glyphname = g;
lastChange = "2022-01-17 12:04:26 +0000";
layers = (
{
layerId = m01;
shapes = (
{
closed = 1;
nodes = (
(50,-150,o),
(50,-150,o),
(50,-138,cs),
(50,-113,ls),
(50,-100,o),
(50,-100,o),
(63,-100,cs),
(488,-100,ls),
(500,-100,o),
(500,-100,o),
(500,-113,cs),
(500,-138,ls),
(500,-150,o),
(500,-150,o),
(488,-150,cs),
(63,-150,ls)
);
},
{
closed = 1;
nodes = (
(50,50,o),
(50,50,o),
(50,63,cs),
(50,88,ls),
(50,100,o),
(50,100,o),
(63,100,cs),
(238,100,ls),
(250,100,o),
(250,100,o),
(250,88,cs),
(250,63,ls),
(250,50,o),
(250,50,o),
(238,50,cs),
(63,50,ls)
);
},
{
closed = 1;
nodes = (
(500,-200,ls),
(538,-200,o),
(550,-188,o),
(550,-150,cs),
(550,-100,ls),
(550,-63,o),
(538,-50,o),
(500,-50,cs),
(463,-50,ls),
(450,-50,o),
(450,-50,o),
(450,-38,cs),
(450,0,ls),
(450,38,o),
(438,50,o),
(400,50,cs),
(313,50,ls),
(300,50,o),
(300,50,o),
(300,63,cs),
(300,100,ls),
(300,138,o),
(288,150,o),
(250,150,cs),
(213,150,ls),
(200,150,o),
(200,150,o),
(200,163,cs),
(200,200,ls),
(200,238,o),
(188,250,o),
(150,250,cs),
(0,250,l),
(0,200,l),
(138,200,ls),
(150,200,o),
(150,200,o),
(150,188,cs),
(150,163,ls),
(150,150,o),
(150,150,o),
(138,150,cs),
(50,150,ls),
(13,150,o),
(0,138,o),
(0,100,cs),
(0,50,ls),
(0,13,o),
(13,0,o),
(50,0,cs),
(388,0,ls),
(400,0,o),
(400,0,o),
(400,-13,cs),
(400,-38,ls),
(400,-50,o),
(400,-50,o),
(388,-50,cs),
(50,-50,ls),
(13,-50,o),
(0,-63,o),
(0,-100,cs),
(0,-150,ls),
(0,-188,o),
(13,-200,o),
(50,-200,cs)
);
}
);
width = 475;
}
);
unicode = 103;
},
{
glyphname = h;
lastChange = "2022-05-10 09:36:20 +0000";
layers = (
{
layerId = m01;
shapes = (
{
closed = 1;
nodes = (
(0,450,l),
(38,450,ls),
(50,450,o),
(50,450,o),
(50,438,cs),
(50,0,l),
(100,0,l),
(100,188,ls),
(100,200,o),
(100,200,o),
(113,200,cs),
(288,200,ls),
(300,200,o),
(300,200,o),
(300,188,cs),
(300,50,ls),
(300,13,o),
(313,0,o),
(350,0,cs),
(425,0,l),
(425,50,l),
(363,50,ls),
(350,50,o),
(350,50,o),
(350,63,cs),
(350,200,ls),
(350,238,o),
(338,250,o),
(300,250,cs),
(113,250,ls),
(100,250,o),
(100,250,o),
(100,263,cs),
(100,450,ls),
(100,488,o),
(88,500,o),
(50,500,cs),
(0,500,l)
);
}
);
width = 463;
}
);
unicode = 104;
},
{
glyphname = i;
lastChange = "2022-05-09 19:53:51 +0000";
layers = (
{
layerId = m01;
shapes = (
{
closed = 1;
nodes = (
(38,300,l),
(88,300,l),
(88,350,l),
(38,350,l)
);
},
{
closed = 1;
nodes = (
(0,200,l),
(38,200,ls),
(50,200,o),
(50,200,o),
(50,188,cs),
(50,50,ls),
(50,13,o),
(63,0,o),
(100,0,cs),
(175,0,l),
(175,50,l),
(113,50,ls),
(100,50,o),
(100,50,o),
(100,63,cs),
(100,200,ls),
(100,238,o),
(88,250,o),
(50,250,cs),
(0,250,l)
);
}
);
width = 213;
}
);
unicode = 105;
},
{
glyphname = j;
lastChange = "2022-05-10 09:37:18 +0000";
layers = (
{
layerId = m01;
shapes = (
{
closed = 1;
nodes = (
(-100,-250,l),
(50,-250,ls),
(88,-250,o),
(100,-238,o),
(100,-200,cs),
(100,200,ls),
(100,238,o),
(88,250,o),
(50,250,cs),
(0,250,l),
(0,200,l),
(38,200,ls),
(50,200,o),
(50,200,o),
(50,188,cs),
(50,-188,ls),
(50,-200,o),
(50,-200,o),
(38,-200,cs),
(-100,-200,l)
);
},
{
closed = 1;
nodes = (
(88,350,l),
(38,350,l),
(38,300,l),
(88,300,l)
);
}
);
width = 138;
}
);
unicode = 106;
},
{
glyphname = k;
lastChange = "2022-05-10 09:36:51 +0000";
layers = (
{
layerId = m01;
shapes = (
{
closed = 1;
nodes = (
(0,450,l),
(38,450,ls),
(50,450,o),
(50,450,o),
(50,438,cs),
(50,0,l),
(100,0,l),
(100,88,ls),
(100,100,o),
(100,100,o),
(113,100,cs),
(238,100,ls),
(250,100,o),
(250,100,o),
(250,88,cs),
(250,50,ls),
(250,13,o),
(263,0,o),
(300,0,cs),
(375,0,l),
(375,50,l),
(313,50,ls),
(300,50,o),
(300,50,o),
(300,63,cs),
(300,100,ls),
(300,138,o),
(288,150,o),
(263,150,cs),
(250,150,o),
(250,150,o),
(250,163,cs),
(250,188,ls),
(250,200,o),
(250,200,o),
(263,200,cs),
(300,200,l),
(300,250,l),
(250,250,ls),
(213,250,o),
(200,238,o),
(200,200,cs),
(200,163,ls),
(200,150,o),
(200,150,o),
(188,150,cs),
(113,150,ls),
(100,150,o),
(100,150,o),
(100,163,cs),
(100,450,ls),
(100,488,o),
(88,500,o),
(50,500,cs),
(0,500,l)
);
}
);
width = 413;
}
);
unicode = 107;
},
{
glyphname = l;
lastChange = "2022-05-10 09:38:15 +0000";
layers = (
{
layerId = m01;
shapes = (
{
closed = 1;
nodes = (
(0,450,l),
(38,450,ls),
(50,450,o),
(50,450,o),
(50,438,cs),
(50,50,ls),
(50,13,o),
(63,0,o),
(100,0,cs),
(175,0,l),
(175,50,l),
(113,50,ls),
(100,50,o),
(100,50,o),
(100,63,cs),
(100,450,ls),
(100,488,o),
(88,500,o),
(50,500,cs),
(0,500,l)
);
}
);
width = 213;
}
);
unicode = 108;
},
{
glyphname = m;
lastChange = "2022-05-10 09:37:24 +0000";
layers = (
{
layerId = m01;
shapes = (
{
closed = 1;
nodes = (
(0,200,l),
(38,200,ls),
(50,200,o),
(50,200,o),
(50,188,cs),
(50,0,l),
(100,0,l),
(100,188,ls),
(100,200,o),
(100,200,o),
(113,200,cs),
(238,200,ls),
(250,200,o),
(250,200,o),
(250,188,cs),
(250,0,l),
(300,0,l),
(300,188,ls),
(300,200,o),
(300,200,o),
(313,200,cs),
(438,200,ls),
(450,200,o),
(450,200,o),
(450,188,cs),
(450,50,ls),
(450,13,o),
(463,0,o),
(500,0,cs),
(575,0,l),
(575,50,l),
(513,50,ls),
(500,50,o),
(500,50,o),
(500,63,cs),
(500,200,ls),
(500,238,o),
(488,250,o),
(450,250,cs),
(0,250,l)
);
}
);
width = 613;
}
);
unicode = 109;
},
{
glyphname = n;
lastChange = "2022-05-10 09:37:06 +0000";
layers = (
{
layerId = m01;
shapes = (
{
closed = 1;
nodes = (
(0,200,l),
(38,200,ls),
(50,200,o),
(50,200,o),
(50,188,cs),
(50,0,l),
(100,0,l),
(100,188,ls),
(100,200,o),
(100,200,o),
(113,200,cs),
(288,200,ls),
(300,200,o),
(300,200,o),
(300,188,cs),
(300,50,ls),
(300,13,o),
(313,0,o),
(350,0,cs),
(425,0,l),
(425,50,l),
(363,50,ls),
(350,50,o),
(350,50,o),
(350,63,cs),
(350,200,ls),
(350,238,o),
(338,250,o),
(300,250,cs),
(0,250,l)
);
}
);
width = 463;
}
);
unicode = 110;
},
{
glyphname = o;
lastChange = "2022-05-10 09:37:01 +0000";
layers = (
{
layerId = m01;
shapes = (
{
closed = 1;
nodes = (
(350,0,ls),
(388,0,o),
(400,13,o),
(400,50,cs),
(400,200,ls),
(400,238,o),
(388,250,o),
(350,250,cs),
(50,250,ls),
(13,250,o),
(0,238,o),
(0,200,cs),
(0,50,ls),
(0,13,o),
(13,0,o),
(50,0,cs)
);
},
{
closed = 1;
nodes = (
(50,50,o),
(50,50,o),
(50,63,cs),
(50,188,ls),
(50,200,o),
(50,200,o),
(63,200,cs),
(338,200,ls),
(350,200,o),
(350,200,o),
(350,188,cs),
(350,63,ls),
(350,50,o),
(350,50,o),
(338,50,cs),
(63,50,ls)
);
}
);
width = 438;
}
);
unicode = 111;
},
{
glyphname = p;
lastChange = "2022-05-10 09:45:22 +0000";
layers = (
{
layerId = m01;
shapes = (
{
closed = 1;
nodes = (
(100,-250,ls),
(138,-250,o),
(150,-238,o),
(150,-200,cs),
(150,-13,ls),
(150,0,o),
(150,0,o),
(163,0,cs),
(400,0,ls),
(438,0,o),
(450,13,o),
(450,50,cs),
(450,200,ls),
(450,238,o),
(438,250,o),
(400,250,cs),
(0,250,l),
(0,200,l),
(50,200,l),
(50,50,ls),
(50,13,o),
(63,0,o),
(88,0,cs),
(88,0,o),
(86,0,o),
(88,0,cs),
(100,0,o),
(100,0,o),
(100,-13,cs),
(100,-188,ls),
(100,-200,o),
(100,-200,o),
(88,-200,cs),
(50,-200,l),
(50,-250,l)
);
},
{
closed = 1;
nodes = (
(100,188,ls),
(100,200,o),
(100,200,o),
(113,200,cs),
(388,200,ls),
(400,200,o),
(400,200,o),
(400,188,cs),
(400,63,ls),
(400,50,o),
(400,50,o),
(388,50,cs),
(113,50,ls),
(100,50,o),
(100,50,o),
(100,63,cs)
);
}
);
width = 488;
}
);
unicode = 112;
},
{
glyphname = q;
lastChange = "2022-05-10 09:36:30 +0000";
layers = (
{
layerId = m01;
shapes = (
{
closed = 1;
nodes = (
(50,250,ls),
(13,250,o),
(0,237,o),
(0,200,cs),
(0,50,ls),
(0,13,o),
(13,0,o),
(50,0,cs),
(238,0,ls),
(250,0,o),
(250,0,o),
(250,-13,cs),
(250,-200,ls),
(250,-238,o),
(263,-250,o),
(300,-250,cs),
(350,-250,l),
(350,-200,l),
(313,-200,ls),
(300,-200,o),
(300,-200,o),
(300,-188,cs),
(300,-13,ls),
(300,0,o),
(300,0,o),
(313,0,cs),
(350,0,ls),
(388,0,o),
(400,13,o),
(400,50,cs),
(400,188,ls),
(400,200,o),
(400,200,o),
(413,200,cs),
(450,200,l),
(450,250,l)
);
},
{
closed = 1;
nodes = (
(350,200,o),
(350,200,o),
(350,188,cs),
(350,63,ls),
(350,50,o),
(350,50,o),
(338,50,cs),
(63,50,ls),
(50,50,o),
(50,50,o),
(50,63,cs),
(50,188,ls),
(50,200,o),
(50,200,o),
(63,200,cs),
(338,200,ls)
);
}
);
width = 488;
}
);
unicode = 113;
},
{
glyphname = r;
lastChange = "2022-05-10 09:36:58 +0000";
layers = (
{
layerId = m01;
shapes = (
{
closed = 1;
nodes = (
(0,200,l),
(38,200,ls),
(50,200,o),
(50,200,o),
(50,188,cs),
(50,50,ls),
(50,13,o),
(63,0,o),
(100,0,cs),
(175,0,l),
(175,50,l),
(113,50,ls),
(100,50,o),
(100,50,o),
(100,63,cs),
(100,188,ls),
(100,200,o),
(100,200,o),
(113,200,cs),
(288,200,ls),
(300,200,o),
(300,200,o),
(300,188,cs),
(300,150,l),
(350,150,l),
(350,200,ls),
(350,238,o),
(338,250,o),
(300,250,cs),
(0,250,l)
);
}
);
width = 388;
}
);
unicode = 114;
},
{
glyphname = s;
lastChange = "2022-05-10 09:37:35 +0000";
layers = (
{
layerId = m01;
shapes = (
{
closed = 1;
nodes = (
(0,150,ls),
(0,113,o),
(13,100,o),
(50,100,cs),
(288,100,ls),
(300,100,o),
(300,100,o),
(300,88,cs),
(300,63,ls),
(300,50,o),
(300,50,o),
(288,50,cs),
(0,50,l),
(0,0,l),
(300,0,ls),
(338,0,o),
(350,13,o),
(350,50,cs),
(350,100,ls),
(350,138,o),
(338,150,o),
(300,150,cs),
(63,150,ls),
(50,150,o),
(50,150,o),
(50,163,cs),
(50,188,ls),
(50,200,o),
(50,200,o),
(63,200,cs),
(250,200,l),
(250,250,l),
(50,250,ls),
(13,250,o),
(0,238,o),
(0,200,cs)
);
}
);
width = 388;
}
);
unicode = 115;
},
{
glyphname = t;
lastChange = "2022-05-10 09:37:55 +0000";
layers = (
{
layerId = m01;
shapes = (
{
closed = 1;
nodes = (
(238,0,l),
(238,50,l),
(113,50,ls),
(100,50,o),
(100,50,o),
(100,63,cs),
(100,188,ls),
(100,196,o),
(104,200,o),
(113,200,cs),
(200,200,l),
(200,250,l),
(113,250,ls),
(104,250,o),
(100,250,o),
(100,263,cs),
(100,450,ls),
(100,488,o),
(88,500,o),
(50,500,cs),
(0,500,l),
(0,450,l),
(38,450,ls),
(50,450,o),
(50,450,o),
(50,438,cs),
(50,263,ls),
(50,254,o),
(46,250,o),
(38,250,cs),
(0,250,l),
(0,200,l),
(38,200,ls),
(46,200,o),
(50,196,o),
(50,188,cs),
(50,50,ls),
(50,13,o),
(63,0,o),
(100,0,cs)
);
}
);
width = 275;
}
);
unicode = 116;
},
{
glyphname = u;
lastChange = "2022-05-10 09:36:39 +0000";
layers = (
{
layerId = m01;
shapes = (
{
closed = 1;
nodes = (
(0,200,l),
(38,200,ls),
(50,200,o),
(50,200,o),
(50,188,cs),
(50,50,ls),
(50,13,o),
(63,0,o),
(100,0,cs),
(425,0,l),
(425,50,l),
(363,50,ls),
(350,50,o),
(350,50,o),
(350,63,cs),
(350,250,l),
(300,250,l),
(300,63,ls),
(300,50,o),
(300,50,o),
(288,50,cs),
(113,50,ls),
(100,50,o),
(100,50,o),
(100,63,cs),
(100,200,ls),
(100,238,o),
(88,250,o),
(50,250,cs),
(0,250,l)
);
}
);
width = 463;
}
);
unicode = 117;
},
{
glyphname = v;
lastChange = "2022-05-10 09:37:41 +0000";
layers = (
{
layerId = m01;
shapes = (
{
closed = 1;
nodes = (
(0,0,l),
(200,0,ls),
(238,0,o),
(250,13,o),
(250,50,cs),
(250,188,ls),
(250,200,o),
(250,200,o),
(263,200,cs),
(325,200,l),
(325,250,l),
(250,250,ls),
(213,250,o),
(200,238,o),
(200,200,cs),
(200,63,ls),
(200,50,o),
(200,50,o),
(188,50,cs),
(63,50,ls),
(50,50,o),
(50,50,o),
(50,63,cs),
(50,250,l),
(0,250,l)
);
}
);
width = 363;
}
);
unicode = 118;
},
{
glyphname = w;
lastChange = "2022-05-10 09:37:03 +0000";
layers = (
{
layerId = m01;
shapes = (
{
closed = 1;
nodes = (
(50,250,l),
(50,63,ls),
(50,50,o),
(50,50,o),
(63,50,cs),
(188,50,ls),
(200,50,o),
(200,50,o),
(200,63,cs),
(200,250,l),
(250,250,l),
(250,63,ls),
(250,50,o),
(250,50,o),
(263,50,cs),
(388,50,ls),
(400,50,o),
(400,50,o),
(400,63,cs),
(400,200,ls),
(400,238,o),
(413,250,o),
(450,250,cs),
(525,250,l),
(525,200,l),
(463,200,ls),
(450,200,o),
(450,200,o),
(450,188,cs),
(450,50,ls),
(450,13,o),
(438,0,o),
(400,0,cs),
(0,0,l),
(0,250,l)
);
}
);
width = 563;
}
);
unicode = 119;
},
{
glyphname = x;
lastChange = "2022-05-10 09:37:14 +0000";
layers = (
{
layerId = m01;
shapes = (
{
closed = 1;
nodes = (
(0,0,l),
(50,0,ls),
(88,0,o),
(100,13,o),
(100,50,cs),
(100,100,l),
(300,100,l),
(300,50,ls),
(300,13,o),
(313,0,o),
(350,0,cs),
(400,0,l),
(400,50,l),
(363,50,ls),
(350,50,o),
(350,50,o),
(350,63,cs),
(350,100,ls),
(350,113,o),
(338,125,o),
(325,125,c),
(338,125,o),
(350,138,o),
(350,150,cs),
(350,188,ls),
(350,200,o),
(350,200,o),
(363,200,cs),
(375,200,l),
(375,250,l),
(350,250,ls),
(313,250,o),
(300,238,o),
(300,200,cs),
(300,150,l),
(100,150,l),
(100,200,ls),
(100,238,o),
(88,250,o),
(50,250,cs),
(25,250,l),
(25,200,l),
(38,200,ls),
(50,200,o),
(50,200,o),
(50,188,cs),
(50,150,ls),
(50,138,o),
(63,125,o),
(75,125,c),
(63,125,o),
(50,113,o),
(50,100,cs),
(50,63,ls),
(50,50,o),
(50,50,o),
(38,50,cs),
(0,50,l)
);
}
);
width = 438;
}
);
unicode = 120;
},
{
glyphname = y;
lastChange = "2022-05-10 09:38:24 +0000";
layers = (
{
layerId = m01;
shapes = (
{
closed = 1;
nodes = (
(0,250,l),
(50,250,ls),
(88,250,o),
(100,238,o),
(100,200,cs),
(100,50,l),
(238,50,ls),
(250,50,o),
(250,50,o),
(250,63,cs),
(250,250,l),
(300,250,l),
(300,63,ls),
(300,50,o),
(300,50,o),
(313,50,cs),
(375,50,ls),
(413,50,o),
(425,38,o),
(425,0,cs),
(425,-50,ls),
(425,-88,o),
(413,-100,o),
(375,-100,cs),
(50,-100,l),
(50,-50,l),
(363,-50,ls),
(375,-50,o),
(375,-50,o),
(375,-38,cs),
(375,-13,ls),
(375,0,o),
(375,0,o),
(363,0,cs),
(100,0,ls),
(63,0,o),
(50,13,o),
(50,50,cs),
(50,200,l),
(0,200,l)
);
}
);
width = 463;
}
);
unicode = 121;
},
{
glyphname = z;
lastChange = "2022-05-10 09:38:21 +0000";
layers = (
{
layerId = m01;
shapes = (
{
closed = 1;
nodes = (
(0,250,l),
(225,250,ls),
(263,250,o),
(275,238,o),
(275,200,cs),
(275,163,ls),
(275,150,o),
(275,150,o),
(288,150,cs),
(350,150,l),
(350,100,l),
(113,100,ls),
(100,100,o),
(100,100,o),
(100,88,cs),
(100,63,ls),
(100,50,o),
(100,50,o),
(113,50,cs),
(400,50,l),
(400,0,l),
(100,0,ls),
(63,0,o),
(50,13,o),
(50,50,cs),
(50,88,ls),
(50,100,o),
(50,100,o),
(38,100,cs),
(0,100,l),
(0,150,l),
(213,150,ls),
(225,150,o),
(225,150,o),
(225,163,cs),
(225,188,ls),
(225,200,o),
(225,200,o),
(213,200,cs),
(0,200,l)
);
}
);
width = 438;
}
);
unicode = 122;
},
{
glyphname = g_g;
lastChange = "2022-01-23 20:24:44 +0000";
layers = (
{
layerId = m01;
shapes = (
{
closed = 1;
nodes = (
(50,-113,ls),
(50,-100,o),
(50,-100,o),
(63,-100,cs),
(888,-100,ls),
(900,-100,o),
(900,-100,o),
(900,-113,cs),
(900,-138,ls),
(900,-150,o),
(900,-150,o),
(888,-150,cs),
(63,-150,ls),
(50,-150,o),
(50,-150,o),
(50,-138,cs)
);
},
{
closed = 1;
nodes = (
(900,-200,ls),
(938,-200,o),
(950,-188,o),
(950,-150,cs),
(950,-100,ls),
(950,-63,o),
(938,-50,o),
(900,-50,cs),
(863,-50,ls),
(850,-50,o),
(850,-50,o),
(850,-38,cs),
(850,0,ls),
(850,38,o),
(838,50,o),
(800,50,cs),
(763,50,ls),
(750,50,o),
(750,50,o),
(750,63,cs),
(750,100,ls),
(750,138,o),
(738,150,o),
(700,150,cs),
(663,150,ls),
(650,150,o),
(650,150,o),
(650,163,cs),
(650,200,ls),
(650,238,o),
(638,250,o),
(600,250,cs),
(450,250,l),
(450,200,l),
(588,200,ls),
(600,200,o),
(600,200,o),
(600,188,cs),
(600,163,ls),
(600,150,o),
(600,150,o),
(588,150,cs),
(500,150,ls),
(463,150,o),
(450,138,o),
(450,100,cs),
(450,50,ls),
(450,13,o),
(463,0,o),
(500,0,cs),
(788,0,ls),
(800,0,o),
(800,0,o),
(800,-13,cs),
(800,-38,ls),
(800,-50,o),
(800,-50,o),
(788,-50,cs),
(413,-50,ls),
(400,-50,o),
(400,-50,o),
(400,-38,cs),
(400,0,ls),
(400,38,o),
(388,50,o),
(350,50,cs),
(313,50,ls),
(300,50,o),
(300,50,o),
(300,63,cs),
(300,100,ls),
(300,138,o),
(288,150,o),
(250,150,cs),
(213,150,ls),
(200,150,o),
(200,150,o),
(200,163,cs),
(200,200,ls),
(200,238,o),
(188,250,o),
(150,250,cs),
(0,250,l),
(0,200,l),
(138,200,ls),
(150,200,o),
(150,200,o),
(150,188,cs),
(150,163,ls),
(150,150,o),
(150,150,o),
(138,150,cs),
(50,150,ls),
(13,150,o),
(0,138,o),
(0,100,cs),
(0,50,ls),
(0,13,o),
(13,0,o),
(50,0,cs),
(338,0,ls),
(350,0,o),
(350,0,o),
(350,-13,cs),
(350,-38,ls),
(350,-50,o),
(350,-50,o),
(338,-50,cs),
(50,-50,ls),
(13,-50,o),
(0,-63,o),
(0,-100,cs),
(0,-150,ls),
(0,-188,o),
(13,-200,o),
(50,-200,cs)
);
},
{
closed = 1;
nodes = (
(50,88,ls),
(50,100,o),
(50,100,o),
(63,100,cs),
(238,100,ls),
(250,100,o),
(250,100,o),
(250,88,cs),
(250,63,ls),
(250,50,o),
(250,50,o),
(238,50,cs),
(63,50,ls),
(50,50,o),
(50,50,o),
(50,63,cs)
);
},
{
closed = 1;
nodes = (
(500,88,ls),
(500,100,o),
(500,100,o),
(513,100,cs),
(688,100,ls),
(700,100,o),
(700,100,o),
(700,88,cs),
(700,63,ls),
(700,50,o),
(700,50,o),
(688,50,cs),
(513,50,ls),
(500,50,o),
(500,50,o),
(500,63,cs)
);
}
);
vertWidth = 0;
width = 875;
}
);
metricLeft = g;
},
{
glyphname = g_g_y;
lastChange = "2022-05-10 09:38:47 +0000";
layers = (
{
layerId = m01;
shapes = (
{
closed = 1;
nodes = (
(50,-113,ls),
(50,-100,o),
(50,-100,o),
(63,-100,cs),
(888,-100,ls),
(900,-100,o),
(900,-100,o),
(900,-113,cs),
(900,-138,ls),
(900,-150,o),
(900,-150,o),
(888,-150,cs),
(63,-150,ls),
(50,-150,o),
(50,-150,o),
(50,-138,cs)
);
},
{
closed = 1;
nodes = (
(900,-200,ls),
(938,-200,o),
(950,-188,o),
(950,-150,cs),
(950,-113,ls),
(950,-100,o),
(950,-100,o),
(963,-100,cs),
(1000,-100,l),
(1000,-93,o),
(1000,-58,o),
(1000,-50,c),
(950,-50,l),
(863,-50,ls),
(850,-50,o),
(850,-50,o),
(850,-38,cs),
(850,0,ls),
(850,38,o),
(838,50,o),
(800,50,cs),
(763,50,ls),
(750,50,o),
(750,50,o),
(750,63,cs),
(750,100,ls),
(750,138,o),
(738,150,o),
(700,150,cs),
(663,150,ls),
(650,150,o),
(650,150,o),
(650,163,cs),
(650,200,ls),
(650,238,o),
(638,250,o),
(600,250,cs),
(450,250,l),
(450,200,l),
(588,200,ls),
(600,200,o),
(600,200,o),
(600,188,cs),
(600,163,ls),
(600,150,o),
(600,150,o),
(588,150,cs),
(500,150,ls),
(463,150,o),
(450,138,o),
(450,100,cs),
(450,50,ls),
(450,13,o),
(463,0,o),
(500,0,cs),
(788,0,ls),
(800,0,o),
(800,0,o),
(800,-13,cs),
(800,-38,ls),
(800,-50,o),
(800,-50,o),
(788,-50,cs),
(413,-50,ls),
(400,-50,o),
(400,-50,o),
(400,-38,cs),
(400,0,ls),
(400,38,o),
(388,50,o),
(350,50,cs),
(313,50,ls),
(300,50,o),
(300,50,o),
(300,63,cs),
(300,100,ls),
(300,138,o),
(288,150,o),
(250,150,cs),
(213,150,ls),
(200,150,o),
(200,150,o),
(200,163,cs),
(200,200,ls),
(200,238,o),
(188,250,o),
(150,250,cs),
(0,250,l),
(0,200,l),
(138,200,ls),
(150,200,o),
(150,200,o),
(150,188,cs),
(150,163,ls),
(150,150,o),
(150,150,o),
(138,150,cs),
(50,150,ls),
(13,150,o),
(0,138,o),
(0,100,cs),
(0,50,ls),
(0,13,o),
(13,0,o),
(50,0,cs),
(338,0,ls),
(350,0,o),
(350,0,o),
(350,-13,cs),
(350,-38,ls),
(350,-50,o),
(350,-50,o),
(338,-50,cs),
(50,-50,ls),
(13,-50,o),
(0,-63,o),
(0,-100,cs),
(0,-150,ls),
(0,-188,o),
(13,-200,o),
(50,-200,cs)
);
},
{
closed = 1;
nodes = (
(50,88,ls),
(50,100,o),
(50,100,o),
(63,100,cs),
(238,100,ls),
(250,100,o),
(250,100,o),
(250,88,cs),
(250,63,ls),
(250,50,o),
(250,50,o),
(238,50,cs),
(63,50,ls),
(50,50,o),
(50,50,o),
(50,63,cs)
);
},
{
closed = 1;
nodes = (
(500,88,ls),
(500,100,o),
(500,100,o),
(513,100,cs),
(688,100,ls),
(700,100,o),
(700,100,o),
(700,88,cs),
(700,63,ls),
(700,50,o),
(700,50,o),
(688,50,cs),
(513,50,ls),
(500,50,o),
(500,50,o),
(500,63,cs)
);
},
{
closed = 1;
nodes = (
(850,250,l),
(900,250,ls),
(938,250,o),
(950,238,o),
(950,200,cs),
(950,63,ls),
(950,50,o),
(950,50,o),
(963,50,cs),
(1088,50,ls),
(1100,50,o),
(1100,50,o),
(1100,63,cs),
(1100,250,l),
(1150,250,l),
(1150,63,ls),
(1150,50,o),
(1150,50,o),
(1163,50,cs),
(1225,50,ls),
(1263,50,o),
(1275,38,o),
(1275,0,cs),
(1275,-50,ls),
(1275,-88,o),
(1263,-100,o),
(1225,-100,cs),
(1000,-100,l),
(1000,-50,l),
(1213,-50,ls),
(1225,-50,o),
(1225,-50,o),
(1225,-38,cs),
(1225,-13,ls),
(1225,0,o),
(1225,0,o),
(1213,0,cs),
(950,0,ls),
(913,0,o),
(900,13,o),
(900,50,cs),
(900,200,l),
(850,200,l)
);
}
);
width = 1313;
}
);
},
{
glyphname = zero;
lastChange = "2022-05-09 19:37:15 +0000";
layers = (
{
layerId = m01;
shapes = (
{
closed = 1;
nodes = (
(350,0,ls),
(388,0,o),
(400,13,o),
(400,50,cs),
(400,650,ls),
(400,688,o),
(388,700,o),
(350,700,cs),
(50,700,ls),
(13,700,o),
(0,688,o),
(0,650,cs),
(0,50,ls),
(0,13,o),
(13,0,o),
(50,0,cs)
);
},
{
closed = 1;
nodes = (
(50,638,ls),
(50,650,o),
(50,650,o),
(63,650,cs),
(338,650,ls),
(350,650,o),
(350,650,o),
(350,638,cs),
(350,63,ls),
(350,50,o),
(350,50,o),
(338,50,cs),
(63,50,ls),
(50,50,o),
(50,50,o),
(50,63,cs)
);
}
);
width = 475;
}
);
unicode = 48;
},
{
glyphname = one;
lastChange = "2022-05-09 19:37:02 +0000";
layers = (
{
layerId = m01;
shapes = (
{
closed = 1;
nodes = (
(-25,650,l),
(63,650,ls),
(74,645,o),
(74,645,o),
(75,638,cs),
(75,0,l),
(125,0,l),
(125,650,ls),
(124,683,o),
(112,695,o),
(75,700,cs),
(-25,700,l)
);
}
);
width = 188;
}
);
unicode = 49;
},
{
glyphname = two;
lastChange = "2022-05-09 21:36:57 +0000";
layers = (
{
layerId = m01;
shapes = (
{
closed = 1;
nodes = (
(0,600,l),
(50,600,l),
(50,638,ls),
(50,650,o),
(50,650,o),
(63,650,cs),
(388,650,ls),
(400,650,o),
(400,650,o),
(400,638,cs),
(400,513,ls),
(400,500,o),
(400,500,o),
(388,500,cs),
(50,500,ls),
(13,500,o),
(0,488,o),
(0,450,cs),
(0,50,ls),
(0,13,o),
(13,0,o),
(50,0,cs),
(450,0,l),
(450,50,l),
(63,50,ls),
(50,50,o),
(50,50,o),
(50,63,cs),
(50,438,ls),
(50,450,o),
(50,450,o),
(63,450,cs),
(400,450,ls),
(438,450,o),
(450,463,o),
(450,500,cs),
(450,650,ls),
(450,688,o),
(438,700,o),
(400,700,cs),
(50,700,ls),
(13,700,o),
(0,688,o),
(0,650,cs)
);
}
);
width = 600;
}
);
unicode = 50;
},
{
glyphname = three;
lastChange = "2022-05-09 21:40:20 +0000";
layers = (
{
layerId = m01;
shapes = (
{
closed = 1;
nodes = (
(100,650,l),
(388,650,ls),
(400,650,o),
(400,650,o),
(400,638,cs),
(400,500,l),
(100,500,l),
(100,450,l),
(488,450,ls),
(500,450,o),
(500,450,o),
(500,438,cs),
(500,63,ls),
(500,50,o),
(500,50,o),
(488,50,cs),
(63,50,ls),
(50,50,o),
(50,50,o),
(50,63,cs),
(50,150,l),
(0,150,l),
(0,50,ls),
(0,13,o),
(13,0,o),
(50,0,cs),
(500,0,ls),
(538,0,o),
(550,13,o),
(550,50,cs),
(550,450,ls),
(550,488,o),
(538,500,o),
(500,500,cs),
(450,500,l),
(450,650,ls),
(450,688,o),
(438,700,o),
(400,700,cs),
(100,700,l)
);
}
);
width = 600;
}
);
unicode = 51;
},
{
glyphname = four;
lastChange = "2022-05-09 21:47:21 +0000";
layers = (
{
layerId = m01;
shapes = (
{
closed = 1;
nodes = (
(0,550,l),
(38,550,ls),
(50,550,o),
(50,550,o),
(50,538,cs),
(50,300,ls),
(50,263,o),
(63,250,o),
(100,250,cs),
(350,250,l),
(350,0,l),
(400,0,l),
(400,250,l),
(475,250,l),
(475,300,l),
(400,300,l),
(400,700,l),
(350,700,l),
(350,300,l),
(113,300,ls),
(100,300,o),
(100,300,o),
(100,313,cs),
(100,550,ls),
(100,588,o),
(88,600,o),
(50,600,cs),
(0,600,l)
);
}
);
width = 600;
}
);
unicode = 52;
},
{
glyphname = five;
lastChange = "2022-05-09 21:52:09 +0000";
layers = (
{
layerId = m01;
shapes = (
{
closed = 1;
nodes = (
(0,50,ls),
(0,13,o),
(13,0,o),
(50,0,cs),
(500,0,ls),
(538,0,o),
(550,13,o),
(550,50,cs),
(550,450,ls),
(550,488,o),
(538,500,o),
(500,500,cs),
(63,500,ls),
(50,500,o),
(50,500,o),
(50,513,cs),
(50,638,ls),
(50,650,o),
(50,650,o),
(63,650,cs),
(450,650,l),
(450,700,l),
(50,700,ls),
(13,700,o),
(0,688,o),
(0,650,cs),
(0,500,ls),
(0,463,o),
(13,450,o),
(50,450,cs),
(488,450,ls),
(500,450,o),
(500,450,o),
(500,438,cs),
(500,63,ls),
(500,50,o),
(500,50,o),
(488,50,cs),
(63,50,ls),
(50,50,o),
(50,50,o),
(50,63,cs),
(50,150,l),
(0,150,l)
);
}
);
width = 600;
}
);
unicode = 53;
},
{
glyphname = period;
lastChange = "2022-01-20 21:23:28 +0000";
layers = (
{
layerId = m01;
shapes = (
{
closed = 1;
nodes = (
(0,0,l),
(50,0,l),
(50,50,l),
(0,50,l)
);
}
);
width = 100;
}
);
unicode = 46;
},
{
glyphname = comma;
lastChange = "2022-05-10 10:01:26 +0000";
layers = (
{
layerId = m01;
shapes = (
{
closed = 1;
nodes = (
(0,0,l),
(38,0,ls),
(50,0,o),
(50,0,o),
(50,-13,cs),
(50,-38,ls),
(50,-50,o),
(50,-50,o),
(38,-50,cs),
(0,-50,l),
(0,-100,l),
(50,-100,ls),
(88,-100,o),
(100,-88,o),
(100,-50,cs),
(100,0,ls),
(100,38,o),
(88,50,o),
(50,50,cs),
(0,50,l)
);
}
);
width = 150;
}
);
unicode = 44;
},
{
glyphname = exclam;
lastChange = "2022-05-10 09:51:25 +0000";
layers = (
{
layerId = m01;
shapes = (
{
closed = 1;
nodes = (
(0,100,l),
(50,100,l),
(50,500,l),
(0,500,l)
);
},
{
closed = 1;
nodes = (
(0,0,l),
(50,0,l),
(50,50,l),
(0,50,l)
);
}
);
width = 100;
}
);
unicode = 33;
},
{
glyphname = question;
lastChange = "2022-05-10 09:51:30 +0000";
layers = (
{
layerId = m01;
shapes = (
{
closed = 1;
nodes = (
(0,450,l),
(338,450,ls),
(350,450,o),
(350,450,o),
(350,438,cs),
(350,263,ls),
(350,250,o),
(350,250,o),
(338,250,cs),
(100,250,l),
(100,200,l),
(150,200,l),
(150,100,l),
(200,100,l),
(200,200,l),
(350,200,ls),
(388,200,o),
(400,213,o),
(400,250,cs),
(400,450,ls),
(400,488,o),
(388,500,o),
(350,500,cs),
(0,500,l)
);
},
{
closed = 1;
nodes = (
(150,0,l),
(200,0,l),
(200,50,l),
(150,50,l)
);
}
);
width = 450;
}
);
unicode = 63;
},
{
glyphname = asterisk;
lastChange = "2022-05-10 10:01:00 +0000";
layers = (
{
layerId = m01;
shapes = (
{
closed = 1;
nodes = (
(0,400,l),
(38,400,ls),
(50,400,o),
(50,400,o),
(50,388,cs),
(50,363,ls),
(50,350,o),
(50,350,o),
(38,350,cs),
(0,350,l),
(0,300,l),
(50,300,ls),
(88,300,o),
(100,313,o),
(100,350,cs),
(100,350,l),
(100,250,l),
(150,250,l),
(150,350,l),
(150,350,ls),
(150,313,o),
(163,300,o),
(200,300,cs),
(250,300,l),
(250,350,l),
(213,350,ls),
(200,350,o),
(200,350,o),
(200,363,cs),
(200,388,ls),
(200,400,o),
(200,400,o),
(213,400,cs),
(250,400,l),
(250,450,l),
(200,450,ls),
(163,450,o),
(150,438,o),
(150,400,cs),
(150,400,l),
(150,500,l),
(100,500,l),
(100,400,l),
(100,400,ls),
(100,438,o),
(88,450,o),
(50,450,cs),
(0,450,l)
);
}
);
width = 300;
}
);
unicode = 42;
},
{
glyphname = hyphen;
lastChange = "2022-01-26 10:28:08 +0000";
layers = (
{
layerId = m01;
shapes = (
{
closed = 1;
nodes = (
(50,150,l),
(300,150,l),
(300,200,l),
(50,200,l)
);
}
);
width = 388;
}
);
unicode = 45;
},
{
glyphname = percent;
lastChange = "2022-05-10 09:55:15 +0000";
layers = (
{
layerId = m01;
shapes = (
{
closed = 1;
nodes = (
(250,300,ls),
(288,300,o),
(300,313,o),
(300,350,cs),
(300,400,ls),
(300,438,o),
(288,450,o),
(250,450,cs),
(50,450,ls),
(13,450,o),
(0,438,o),
(0,400,cs),
(0,350,ls),
(0,313,o),
(13,300,o),
(50,300,cs)
);
},
{
closed = 1;
nodes = (
(50,388,ls),
(50,400,o),
(50,400,o),
(63,400,cs),
(238,400,ls),
(250,400,o),
(250,400,o),
(250,388,cs),
(250,363,ls),
(250,350,o),
(250,350,o),
(238,350,cs),
(63,350,ls),
(50,350,o),
(50,350,o),
(50,363,cs)
);
},
{
closed = 1;
nodes = (
(550,0,ls),
(588,0,o),
(600,13,o),
(600,50,cs),
(600,100,ls),
(600,138,o),
(588,150,o),
(550,150,cs),
(350,150,ls),
(313,150,o),
(300,138,o),
(300,100,cs),
(300,50,ls),
(300,13,o),
(313,0,o),
(350,0,cs)
);
},
{
closed = 1;
nodes = (
(350,88,ls),
(350,100,o),
(350,100,o),
(363,100,cs),
(538,100,ls),
(550,100,o),
(550,100,o),
(550,88,cs),
(550,63,ls),
(550,50,o),
(550,50,o),
(538,50,cs),
(363,50,ls),
(350,50,o),
(350,50,o),
(350,63,cs)
);
},
{
closed = 1;
nodes = (
(50,200,ls),
(50,238,o),
(63,250,o),
(100,250,cs),
(388,250,ls),
(400,250,o),
(400,250,o),
(400,263,cs),
(400,400,l),
(450,400,l),
(450,250,ls),
(450,213,o),
(438,200,o),
(400,200,cs),
(113,200,ls),
(100,200,o),
(100,200,o),
(100,188,cs),
(100,100,l),
(50,100,l)
);
}
);
width = 600;
}
);
unicode = 37;
},
